# xmcd
#
# Track frame offsets:
#	150
#	21506
#	48261
#	81418
#	89866
#	106144
#	124128
#	143402
#	157146
#	175611
#	198869
#	248665
#	271238
#	283010
#
# Disc length: 4053 seconds
#
# Revision: 1
# Processed by: cddbd v1.5.2PL0 Copyright (c) Steve Scherf et al.
# Submitted via: audiograbber 1.83.01
#
DISCID=c10fd30e
DTITLE=PATATIVO DO ASSARÉ - 80 ANOS DE POESIAS
DYEAR=1900
DGENRE=POESIA
TTITLE0=IVANILDO VILA NOVA E GERALDO AMÂCIO - 85 DE IDADE DE LUZ E DE POESIA
TTITLE1=PATATIVO DO ASSARÉ - CABOCLA DE MINHA TERRA
TTITLE2=PATATIVO DO ASSARÉ - MÃE PRETA
TTITLE3=PATATIVO DO ASSARÉ - FILHO DE GATO É GATINHO
TTITLE4=OTACÍLIO BATISTA E OLIVEIRA DE PANELAS - SEXTILHAS
TTITLE5=PATATIVO DO ASSARÉ - APOSENTADORIA DE MANÉ DO RIACHÃO
TTITLE6=PATATIVO DO ASSARÉ - MINHA SODADE
TTITLE7=PATATIVO DO ASSARÉ - AO DOTÔ DO AVIÃO
TTITLE8=PATATIVO DO ASSARÉ - PRESENTE DISAGRADAVI
TTITLE9=PATATIVO DO ASSARÉ - MÃE E FILHA
TTITLE10=PATATIVO DO ASSARÉ - AS PROESAS DE SABINA
TTITLE11=OTACÍLIO BATISTA E OLIVEIRA DE PANELAS - DÉCIMAS
TTITLE12=PATATIVO DO ASSARÉ - LAMENTO DE UM SERTANEJO
TTITLE13=PATATIVO DO ASSARÉ - A ESTRADA DE MINHA VIDA
EXTD=
EXTT0=
EXTT1=
EXTT2=
EXTT3=
EXTT4=
EXTT5=
EXTT6=
EXTT7=
EXTT8=
EXTT9=
EXTT10=
EXTT11=
EXTT12=
EXTT13=
PLAYORDER=
